<?xml version="1.0" encoding="iso-8859-1"?>
<!-- Generator: Adobe Illustrator 19.0.0, SVG Export Plug-In . SVG Version: 6.00 Build 0)  -->
<svg version="1.1" id="Layer_1" xmlns="http://www.w3.org/2000/svg" xmlns:xlink="http://www.w3.org/1999/xlink" x="0px" y="0px"
	 viewBox="0 0 512 512" style="enable-background:new 0 0 512 512;" xml:space="preserve">
<path style="fill:#808080;" d="M512,23.95C512,10.743,501.255,0,488.05,0H23.95C10.743,0,0,10.743,0,23.95v38.32h512V23.95z"/>
<path style="fill:#F2F2F2;" d="M0,62.27v425.78C0,501.257,10.743,512,23.95,512h464.1c13.206,0,23.95-10.743,23.95-23.95V62.27H0z"
	/>
<path style="fill:#666666;" d="M63.335,0H23.95C10.743,0,0,10.743,0,23.95v38.32h39.385V23.95C39.385,10.743,50.128,0,63.335,0z"/>
<path style="fill:#CCCCCC;" d="M39.385,488.05V62.27H0v425.78C0,501.257,10.743,512,23.95,512h39.385
	C50.128,512,39.385,501.257,39.385,488.05z"/>
<g>
	<path style="fill:#4C4C4C;" d="M459.31,47.9H335.834c-4.41,0-7.983-3.574-7.983-7.983s3.573-7.983,7.983-7.983H459.31
		c4.41,0,7.983,3.574,7.983,7.983S463.72,47.9,459.31,47.9z"/>
	<path style="fill:#4C4C4C;" d="M310.287,47.9h-29.805c-4.41,0-7.983-3.574-7.983-7.983s3.573-7.983,7.983-7.983h29.805
		c4.41,0,7.983,3.574,7.983,7.983S314.697,47.9,310.287,47.9z"/>
</g>
<path style="fill:#4F5AA8;" d="M462.282,385.67c-1.314-2.805-4.132-4.597-7.23-4.597h-40.449c-2.325,0-4.533,1.013-6.05,2.774
	l-65.996,76.64c-2.036,2.365-2.508,5.7-1.207,8.537c1.301,2.838,4.136,4.656,7.256,4.656h42.578c2.369,0,4.617-1.053,6.133-2.873
	l63.867-76.64C463.168,391.788,463.595,388.475,462.282,385.67z"/>
<path style="fill:#458FDE;" d="M391.185,308.69H280.482c-4.41,0-7.983,3.574-7.983,7.983v149.023c0,4.409,3.573,7.983,7.983,7.983
	h40.449c3.935,0,7.284-2.868,7.889-6.756l6.406-41.181l5.468,41.009c0.529,3.966,3.913,6.928,7.914,6.928h42.578
	c4.41,0,7.983-3.574,7.983-7.983V316.674C399.168,312.265,395.595,308.69,391.185,308.69z"/>
<g>
	<path style="fill:#4F5AA8;" d="M335.834,424.715c4.41,0,7.983-3.574,7.983-7.983V308.69H327.85v108.042
		C327.85,421.141,331.424,424.715,335.834,424.715z"/>
	<path style="fill:#4F5AA8;" d="M280.482,308.69c-4.41,0-7.983,3.574-7.983,7.983v77.173l44.046-85.156H280.482z"/>
	<path style="fill:#4F5AA8;" d="M399.168,316.674c0-4.409-3.573-7.983-7.983-7.983h-36.062l44.046,85.156V316.674z"/>
</g>
<path style="fill:#AFF078;" d="M221.405,461.439H100.058v-53.222c0-17.637,14.297-31.933,31.933-31.933h57.48
	c17.637,0,31.933,14.297,31.933,31.933V461.439z"/>
<path style="fill:#5AC779;" d="M157.538,376.283h-25.547c-17.637,0-31.933,14.297-31.933,31.933v53.222h25.547v-53.222
	C125.605,390.579,139.902,376.283,157.538,376.283z"/>
<path style="fill:#00A085;" d="M251.21,473.68H70.254c-4.409,0-7.983-3.574-7.983-7.983s3.574-7.983,7.983-7.983H251.21
	c4.409,0,7.983,3.574,7.983,7.983S255.619,473.68,251.21,473.68z"/>
<circle style="fill:#F7EDBC;" cx="189.472" cy="408.216" r="12.773"/>
<path style="fill:#E24642;" d="M389.056,179.892c-4.41,0-7.983-3.574-7.983-7.983c0-17.902-14.565-32.466-32.466-32.466
	c-17.901,0-32.466,14.564-32.466,32.466c0,4.409-3.573,7.983-7.983,7.983c-4.41,0-7.983-3.574-7.983-7.983
	c0-26.706,21.726-48.432,48.432-48.432c26.706,0,48.432,21.726,48.432,48.432C397.039,176.317,393.466,179.892,389.056,179.892z"/>
<path style="fill:#FF7452;" d="M392.249,163.925h-87.285c-13.206,0-23.95,10.743-23.95,23.95v57.48
	c0,13.207,10.745,23.95,23.95,23.95h87.285c13.206,0,23.95-10.743,23.95-23.95v-57.48
	C416.2,174.669,405.455,163.925,392.249,163.925z"/>
<path style="fill:#E24642;" d="M295.385,231.163h107.509c5.556,0,10.445-2.842,13.306-7.148v-23.721
	c0-13.207-10.745-23.95-23.95-23.95h-87.285c-13.206,0-23.95,10.743-23.95,23.95v21.827
	C283.596,227.466,289.051,231.163,295.385,231.163z"/>
<path style="fill:#FB9D46;" d="M348.607,241.63c-4.41,0-7.983-3.574-7.983-7.983v-14.902c0-4.409,3.573-7.983,7.983-7.983
	c4.41,0,7.983,3.574,7.983,7.983v14.902C356.59,238.056,353.017,241.63,348.607,241.63z"/>
<path style="fill:#FF7452;" d="M295.385,218.744h107.509c5.556,0,10.445-2.842,13.306-7.148v-23.721
	c0-13.207-10.745-23.95-23.95-23.95h-87.285c-13.206,0-23.95,10.743-23.95,23.95v21.827
	C283.596,215.047,289.051,218.744,295.385,218.744z"/>
<path style="fill:#FFD652;" d="M249.375,259.386l-29.566-118.265v-28.822c0-4.409-3.574-7.983-7.983-7.983H109.638
	c-4.409,0-7.983,3.574-7.983,7.983v28.822L72.089,259.386c-0.597,2.384-0.061,4.911,1.452,6.85s3.834,3.07,6.293,3.07H241.63
	c2.459,0,4.779-1.133,6.293-3.07C249.437,264.298,249.971,261.77,249.375,259.386z"/>
<path style="fill:#FB9D46;" d="M219.809,112.299c0-4.409-3.574-7.983-7.983-7.983H109.638c-4.409,0-7.983,3.574-7.983,7.983v28.74
	v0.082L72.089,259.386c-0.791,3.161,0.409,6.574,3.238,8.53c1.381,0.955,3.056,1.389,4.734,1.389h25.103l14.201-121.212
	c0.472-4.023,3.88-7.054,7.929-7.054h3.388l-9.628,38.513c-1.07,4.277,1.531,8.611,5.809,9.681c0.649,0.163,1.301,0.241,1.943,0.241
	c3.577,0,6.832-2.422,7.739-6.049l10.597-42.385h5.609v48.965c0,4.409,3.574,7.983,7.983,7.983s7.983-3.574,7.983-7.983V141.04
	h5.609l10.597,42.385c0.907,3.628,4.162,6.049,7.739,6.049c0.641,0,1.292-0.078,1.943-0.241c4.278-1.069,6.878-5.404,5.809-9.681
	l-9.628-38.513h29.026V112.299z"/>
<g>
</g>
<g>
</g>
<g>
</g>
<g>
</g>
<g>
</g>
<g>
</g>
<g>
</g>
<g>
</g>
<g>
</g>
<g>
</g>
<g>
</g>
<g>
</g>
<g>
</g>
<g>
</g>
<g>
</g>
</svg>
